<svg version="1.2" xmlns="http://www.w3.org/2000/svg" viewBox="0 0 24 24" width="24" height="24">
	<title>back_arrow_en-svg</title>
	<path id="Layer" class="s0" d="m10.3 19.7l-6.9-6.9q-0.2-0.1-0.3-0.4-0.1-0.2-0.1-0.4 0-0.3 0.1-0.5 0.1-0.3 0.3-0.4l6.9-6.9q0.3-0.2 0.7-0.2 0.4 0 0.7 0.3 0.3 0.3 0.3 0.7 0 0.4-0.3 0.7l-5.4 5.2h13.7q0.4 0.1 0.7 0.3 0.3 0.3 0.3 0.7 0 0.5-0.3 0.8-0.3 0.2-0.7 0.2h-13.7l5.4 5.3q0.1 0.2 0.2 0.4 0.1 0.1 0.1 0.4 0 0.2-0.1 0.3 0 0.2-0.2 0.4-0.1 0.1-0.3 0.2-0.2 0.1-0.4 0.1-0.2 0-0.4-0.1-0.2-0.1-0.3-0.2z"/>
</svg>