<svg width="24" height="24" viewBox="0 0 24 24" fill="none" xmlns="http://www.w3.org/2000/svg">
<path d="M13.704 4.28404C13.6116 4.18715 13.5006 4.10981 13.3777 4.05662C13.2548 4.00343 13.1224 3.97547 12.9885 3.9744C12.8546 3.97332 12.7218 3.99916 12.5981 4.05037C12.4743 4.10159 12.3622 4.17713 12.2682 4.27253C12.1742 4.36793 12.1003 4.48123 12.0509 4.60572C12.0016 4.73021 11.9777 4.86335 11.9808 4.99724C11.9838 5.13112 12.0137 5.26303 12.0688 5.38513C12.1238 5.50723 12.2027 5.61704 12.301 5.70804L17.67 11H4C3.73478 11 3.48043 11.1054 3.29289 11.2929C3.10536 11.4805 3 11.7348 3 12C3 12.2653 3.10536 12.5196 3.29289 12.7071C3.48043 12.8947 3.73478 13 4 13H17.665L12.3 18.285C12.1206 18.4731 12.0214 18.7235 12.0235 18.9834C12.0256 19.2432 12.1288 19.4921 12.3112 19.6772C12.4935 19.8623 12.7408 19.9692 13.0006 19.9751C13.2604 19.981 13.5123 19.8856 13.703 19.709L20.628 12.887C20.7459 12.7707 20.8395 12.6322 20.9035 12.4794C20.9674 12.3266 21.0003 12.1627 21.0003 11.997C21.0003 11.8314 20.9674 11.6675 20.9035 11.5147C20.8395 11.3619 20.7459 11.2233 20.628 11.107L13.703 4.28404H13.704Z" fill="#191C1A"/>
</svg>
